{
	"asset":{
		"generator":"Khronos glTF Blender I/O v4.0.44",
		"version":"2.0"
	},
	"scene":0,
	"scenes":[
		{
			"name":"Scene",
			"nodes":[
				0
			]
		}
	],
	"nodes":[
		{
			"mesh":0,
			"name":"8x17V",
			"rotation":[
				-0.0020088879391551018,
				0.004475102759897709,
				-0.0009683049865998328,
				0.9999874830245972
			],
			"scale":[
				43.22229766845703,
				37.55271911621094,
				45.332550048828125
			],
			"translation":[
				0,
				35.100128173828125,
				0
			]
		}
	],
	"materials":[
		{
			"doubleSided":true,
			"name":"Material",
			"pbrMetallicRoughness":{
				"baseColorTexture":{
					"index":0
				},
				"metallicFactor":0,
				"roughnessFactor":0.5
			}
		}
	],
	"meshes":[
		{
			"name":"Cube",
			"primitives":[
				{
					"attributes":{
						"COLOR_0":0,
						"POSITION":1,
						"NORMAL":2,
						"TEXCOORD_0":3
					},
					"indices":4,
					"material":0
				}
			]
		}
	],
	"textures":[
		{
			"sampler":0,
			"source":0
		}
	],
	"images":[
		{
			"mimeType":"image/png",
			"name":"Untitled",
			"uri":"Textures/Untitled.png"
		}
	],
	"accessors":[
		{
			"bufferView":0,
			"componentType":5123,
			"count":423,
			"normalized":true,
			"type":"VEC4"
		},
		{
			"bufferView":1,
			"componentType":5126,
			"count":423,
			"max":[
				1.0062499046325684,
				1.002909779548645,
				0.9999999403953552
			],
			"min":[
				-1.0311145782470703,
				-1.0082093477249146,
				-3.531680107116699
			],
			"type":"VEC3"
		},
		{
			"bufferView":2,
			"componentType":5126,
			"count":423,
			"type":"VEC3"
		},
		{
			"bufferView":3,
			"componentType":5126,
			"count":423,
			"type":"VEC2"
		},
		{
			"bufferView":4,
			"componentType":5123,
			"count":978,
			"type":"SCALAR"
		}
	],
	"bufferViews":[
		{
			"buffer":0,
			"byteLength":3384,
			"byteOffset":0,
			"target":34962
		},
		{
			"buffer":0,
			"byteLength":5076,
			"byteOffset":3384,
			"target":34962
		},
		{
			"buffer":0,
			"byteLength":5076,
			"byteOffset":8460,
			"target":34962
		},
		{
			"buffer":0,
			"byteLength":3384,
			"byteOffset":13536,
			"target":34962
		},
		{
			"buffer":0,
			"byteLength":1956,
			"byteOffset":16920,
			"target":34963
		}
	],
	"samplers":[
		{
			"magFilter":9729,
			"minFilter":9987
		}
	],
	"buffers":[
		{
			"byteLength":18876,
			"uri":"Castle.bin"
		}
	]
}
